<svg xmlns="http://www.w3.org/2000/svg" fill="none" viewBox="0 0 1440 800" height="800" width="1440">
<rect fill="#101112" height="800" width="1440"></rect>
<path stroke-width="4" stroke="url(#paint0_linear_142_2219)" d="M215 287.227C304.212 350.627 380.446 252.708 494.749 333.938" opacity="0.3"></path>
<path stroke-width="4" stroke="url(#paint1_linear_142_2219)" d="M808 370.553C919.853 396.387 995.689 291.452 1139 324.552" opacity="0.7"></path>
<path stroke-width="4" stroke="url(#paint2_linear_142_2219)" d="M136 592C245 483 360.5 666.5 566 461" opacity="0.3"></path>
<g clip-path="url(#clip0_142_2219)">
<path fill="#6E7683" d="M720 311C721.657 311 723 309.657 723 308C723 306.343 721.657 305 720 305C718.343 305 717 306.343 717 308C717 309.657 718.343 311 720 311Z"></path>
<path fill="#6E7683" d="M720 331.53C721.657 331.53 723 330.187 723 328.53C723 326.873 721.657 325.53 720 325.53C718.343 325.53 717 326.873 717 328.53C717 330.187 718.343 331.53 720 331.53Z"></path>
<path fill="#6E7683" d="M720 352.06C721.657 352.06 723 350.717 723 349.06C723 347.403 721.657 346.06 720 346.06C718.343 346.06 717 347.403 717 349.06C717 350.717 718.343 352.06 720 352.06Z"></path>
<path fill="#6E7683" d="M720 372.58C721.657 372.58 723 371.237 723 369.58C723 367.923 721.657 366.58 720 366.58C718.343 366.58 717 367.923 717 369.58C717 371.237 718.343 372.58 720 372.58Z"></path>
<path fill="#6E7683" d="M720 393.11C721.657 393.11 723 391.767 723 390.11C723 388.453 721.657 387.11 720 387.11C718.343 387.11 717 388.453 717 390.11C717 391.767 718.343 393.11 720 393.11Z"></path>
<path fill="#6E7683" d="M720 413.64C721.657 413.64 723 412.297 723 410.64C723 408.983 721.657 407.64 720 407.64C718.343 407.64 717 408.983 717 410.64C717 412.297 718.343 413.64 720 413.64Z"></path>
<path fill="#6E7683" d="M720 434.17C721.657 434.17 723 432.827 723 431.17C723 429.513 721.657 428.17 720 428.17C718.343 428.17 717 429.513 717 431.17C717 432.827 718.343 434.17 720 434.17Z"></path>
<path fill="#6E7683" d="M720 454.7C721.657 454.7 723 453.357 723 451.7C723 450.043 721.657 448.7 720 448.7C718.343 448.7 717 450.043 717 451.7C717 453.357 718.343 454.7 720 454.7Z"></path>
<path fill="#6E7683" d="M720 475.22C721.657 475.22 723 473.877 723 472.22C723 470.563 721.657 469.22 720 469.22C718.343 469.22 717 470.563 717 472.22C717 473.877 718.343 475.22 720 475.22Z"></path>
<path fill="#6E7683" d="M720 495.75C721.657 495.75 723 494.407 723 492.75C723 491.093 721.657 489.75 720 489.75C718.343 489.75 717 491.093 717 492.75C717 494.407 718.343 495.75 720 495.75Z"></path>
<path fill="#6E7683" d="M737.78 321.26C739.437 321.26 740.78 319.917 740.78 318.26C740.78 316.603 739.437 315.26 737.78 315.26C736.123 315.26 734.78 316.603 734.78 318.26C734.78 319.917 736.123 321.26 737.78 321.26Z"></path>
<path fill="#6E7683" d="M737.78 341.79C739.437 341.79 740.78 340.447 740.78 338.79C740.78 337.133 739.437 335.79 737.78 335.79C736.123 335.79 734.78 337.133 734.78 338.79C734.78 340.447 736.123 341.79 737.78 341.79Z"></path>
<path fill="#6E7683" d="M737.78 362.32C739.437 362.32 740.78 360.977 740.78 359.32C740.78 357.663 739.437 356.32 737.78 356.32C736.123 356.32 734.78 357.663 734.78 359.32C734.78 360.977 736.123 362.32 737.78 362.32Z"></path>
<path fill="#6E7683" d="M737.78 382.85C739.437 382.85 740.78 381.507 740.78 379.85C740.78 378.193 739.437 376.85 737.78 376.85C736.123 376.85 734.78 378.193 734.78 379.85C734.78 381.507 736.123 382.85 737.78 382.85Z"></path>
<path fill="#6E7683" d="M737.78 403.38C739.437 403.38 740.78 402.037 740.78 400.38C740.78 398.723 739.437 397.38 737.78 397.38C736.123 397.38 734.78 398.723 734.78 400.38C734.78 402.037 736.123 403.38 737.78 403.38Z"></path>
<path fill="#6E7683" d="M737.78 423.9C739.437 423.9 740.78 422.557 740.78 420.9C740.78 419.244 739.437 417.9 737.78 417.9C736.123 417.9 734.78 419.244 734.78 420.9C734.78 422.557 736.123 423.9 737.78 423.9Z"></path>
<path fill="#6E7683" d="M737.78 444.43C739.437 444.43 740.78 443.087 740.78 441.43C740.78 439.773 739.437 438.43 737.78 438.43C736.123 438.43 734.78 439.773 734.78 441.43C734.78 443.087 736.123 444.43 737.78 444.43Z"></path>
<path fill="#6E7683" d="M737.78 464.96C739.437 464.96 740.78 463.617 740.78 461.96C740.78 460.303 739.437 458.96 737.78 458.96C736.123 458.96 734.78 460.303 734.78 461.96C734.78 463.617 736.123 464.96 737.78 464.96Z"></path>
<path fill="#6E7683" d="M737.78 485.49C739.437 485.49 740.78 484.147 740.78 482.49C740.78 480.833 739.437 479.49 737.78 479.49C736.123 479.49 734.78 480.833 734.78 482.49C734.78 484.147 736.123 485.49 737.78 485.49Z"></path>
<path fill="#6E7683" d="M755.56 331.53C757.217 331.53 758.56 330.187 758.56 328.53C758.56 326.873 757.217 325.53 755.56 325.53C753.903 325.53 752.56 326.873 752.56 328.53C752.56 330.187 753.903 331.53 755.56 331.53Z"></path>
<path fill="#6E7683" d="M755.56 352.06C757.217 352.06 758.56 350.717 758.56 349.06C758.56 347.403 757.217 346.06 755.56 346.06C753.903 346.06 752.56 347.403 752.56 349.06C752.56 350.717 753.903 352.06 755.56 352.06Z"></path>
<path fill="#6E7683" d="M755.56 372.58C757.217 372.58 758.56 371.237 758.56 369.58C758.56 367.923 757.217 366.58 755.56 366.58C753.903 366.58 752.56 367.923 752.56 369.58C752.56 371.237 753.903 372.58 755.56 372.58Z"></path>
<path fill="#6E7683" d="M755.56 393.11C757.217 393.11 758.56 391.767 758.56 390.11C758.56 388.453 757.217 387.11 755.56 387.11C753.903 387.11 752.56 388.453 752.56 390.11C752.56 391.767 753.903 393.11 755.56 393.11Z"></path>
<path fill="#6E7683" d="M755.56 413.64C757.217 413.64 758.56 412.297 758.56 410.64C758.56 408.983 757.217 407.64 755.56 407.64C753.903 407.64 752.56 408.983 752.56 410.64C752.56 412.297 753.903 413.64 755.56 413.64Z"></path>
<path fill="#6E7683" d="M755.56 434.17C757.217 434.17 758.56 432.827 758.56 431.17C758.56 429.513 757.217 428.17 755.56 428.17C753.903 428.17 752.56 429.513 752.56 431.17C752.56 432.827 753.903 434.17 755.56 434.17Z"></path>
<path fill="#6E7683" d="M755.56 454.7C757.217 454.7 758.56 453.357 758.56 451.7C758.56 450.043 757.217 448.7 755.56 448.7C753.903 448.7 752.56 450.043 752.56 451.7C752.56 453.357 753.903 454.7 755.56 454.7Z"></path>
<path fill="#6E7683" d="M773.33 341.79C774.987 341.79 776.33 340.447 776.33 338.79C776.33 337.133 774.987 335.79 773.33 335.79C771.673 335.79 770.33 337.133 770.33 338.79C770.33 340.447 771.673 341.79 773.33 341.79Z"></path>
<path fill="#6E7683" d="M773.33 362.32C774.987 362.32 776.33 360.977 776.33 359.32C776.33 357.663 774.987 356.32 773.33 356.32C771.673 356.32 770.33 357.663 770.33 359.32C770.33 360.977 771.673 362.32 773.33 362.32Z"></path>
<path fill="#6E7683" d="M773.33 382.85C774.987 382.85 776.33 381.507 776.33 379.85C776.33 378.193 774.987 376.85 773.33 376.85C771.673 376.85 770.33 378.193 770.33 379.85C770.33 381.507 771.673 382.85 773.33 382.85Z"></path>
<path fill="#6E7683" d="M773.33 403.38C774.987 403.38 776.33 402.037 776.33 400.38C776.33 398.723 774.987 397.38 773.33 397.38C771.673 397.38 770.33 398.723 770.33 400.38C770.33 402.037 771.673 403.38 773.33 403.38Z"></path>
<path fill="#6E7683" d="M773.33 423.9C774.987 423.9 776.33 422.557 776.33 420.9C776.33 419.244 774.987 417.9 773.33 417.9C771.673 417.9 770.33 419.244 770.33 420.9C770.33 422.557 771.673 423.9 773.33 423.9Z"></path>
<path fill="#6E7683" d="M773.33 444.43C774.987 444.43 776.33 443.087 776.33 441.43C776.33 439.773 774.987 438.43 773.33 438.43C771.673 438.43 770.33 439.773 770.33 441.43C770.33 443.087 771.673 444.43 773.33 444.43Z"></path>
<path fill="#6E7683" d="M791.11 352.06C792.767 352.06 794.11 350.717 794.11 349.06C794.11 347.403 792.767 346.06 791.11 346.06C789.453 346.06 788.11 347.403 788.11 349.06C788.11 350.717 789.453 352.06 791.11 352.06Z"></path>
<path fill="#6E7683" d="M791.11 372.58C792.767 372.58 794.11 371.237 794.11 369.58C794.11 367.923 792.767 366.58 791.11 366.58C789.453 366.58 788.11 367.923 788.11 369.58C788.11 371.237 789.453 372.58 791.11 372.58Z"></path>
<path fill="#6E7683" d="M791.11 393.11C792.767 393.11 794.11 391.767 794.11 390.11C794.11 388.453 792.767 387.11 791.11 387.11C789.453 387.11 788.11 388.453 788.11 390.11C788.11 391.767 789.453 393.11 791.11 393.11Z"></path>
<path fill="#6E7683" d="M791.11 413.64C792.767 413.64 794.11 412.297 794.11 410.64C794.11 408.983 792.767 407.64 791.11 407.64C789.453 407.64 788.11 408.983 788.11 410.64C788.11 412.297 789.453 413.64 791.11 413.64Z"></path>
<path fill="#6E7683" d="M791.11 434.17C792.767 434.17 794.11 432.827 794.11 431.17C794.11 429.513 792.767 428.17 791.11 428.17C789.453 428.17 788.11 429.513 788.11 431.17C788.11 432.827 789.453 434.17 791.11 434.17Z"></path>
<path fill="#6E7683" d="M808.89 362.32C810.547 362.32 811.89 360.977 811.89 359.32C811.89 357.663 810.547 356.32 808.89 356.32C807.233 356.32 805.89 357.663 805.89 359.32C805.89 360.977 807.233 362.32 808.89 362.32Z"></path>
<path fill="#6E7683" d="M808.89 382.85C810.547 382.85 811.89 381.507 811.89 379.85C811.89 378.193 810.547 376.85 808.89 376.85C807.233 376.85 805.89 378.193 805.89 379.85C805.89 381.507 807.233 382.85 808.89 382.85Z"></path>
<path fill="#6E7683" d="M808.89 403.38C810.547 403.38 811.89 402.037 811.89 400.38C811.89 398.723 810.547 397.38 808.89 397.38C807.233 397.38 805.89 398.723 805.89 400.38C805.89 402.037 807.233 403.38 808.89 403.38Z"></path>
<path fill="#6E7683" d="M808.89 423.9C810.547 423.9 811.89 422.557 811.89 420.9C811.89 419.244 810.547 417.9 808.89 417.9C807.233 417.9 805.89 419.244 805.89 420.9C805.89 422.557 807.233 423.9 808.89 423.9Z"></path>
<path fill="#6E7683" d="M826.67 372.58C828.327 372.58 829.67 371.237 829.67 369.58C829.67 367.923 828.327 366.58 826.67 366.58C825.013 366.58 823.67 367.923 823.67 369.58C823.67 371.237 825.013 372.58 826.67 372.58Z"></path>
<path fill="#6E7683" d="M826.67 393.11C828.327 393.11 829.67 391.767 829.67 390.11C829.67 388.453 828.327 387.11 826.67 387.11C825.013 387.11 823.67 388.453 823.67 390.11C823.67 391.767 825.013 393.11 826.67 393.11Z"></path>
<path fill="#6E7683" d="M826.67 413.64C828.327 413.64 829.67 412.297 829.67 410.64C829.67 408.983 828.327 407.64 826.67 407.64C825.013 407.64 823.67 408.983 823.67 410.64C823.67 412.297 825.013 413.64 826.67 413.64Z"></path>
<path fill="#6E7683" d="M844.44 382.85C846.097 382.85 847.44 381.507 847.44 379.85C847.44 378.193 846.097 376.85 844.44 376.85C842.783 376.85 841.44 378.193 841.44 379.85C841.44 381.507 842.783 382.85 844.44 382.85Z"></path>
<path fill="#6E7683" d="M844.44 403.38C846.097 403.38 847.44 402.037 847.44 400.38C847.44 398.723 846.097 397.38 844.44 397.38C842.783 397.38 841.44 398.723 841.44 400.38C841.44 402.037 842.783 403.38 844.44 403.38Z"></path>
<path fill="#6E7683" d="M862.22 393.11C863.877 393.11 865.22 391.767 865.22 390.11C865.22 388.453 863.877 387.11 862.22 387.11C860.563 387.11 859.22 388.453 859.22 390.11C859.22 391.767 860.563 393.11 862.22 393.11Z"></path>
<path fill="#6E7683" d="M880 403.38C881.657 403.38 883 402.037 883 400.38C883 398.723 881.657 397.38 880 397.38C878.343 397.38 877 398.723 877 400.38C877 402.037 878.343 403.38 880 403.38Z"></path>
<path fill="#6E7683" d="M862.22 413.64C863.877 413.64 865.22 412.297 865.22 410.64C865.22 408.983 863.877 407.64 862.22 407.64C860.563 407.64 859.22 408.983 859.22 410.64C859.22 412.297 860.563 413.64 862.22 413.64Z"></path>
<path fill="#6E7683" d="M844.44 423.9C846.097 423.9 847.44 422.557 847.44 420.9C847.44 419.244 846.097 417.9 844.44 417.9C842.783 417.9 841.44 419.244 841.44 420.9C841.44 422.557 842.783 423.9 844.44 423.9Z"></path>
<path fill="#6E7683" d="M826.67 434.17C828.327 434.17 829.67 432.827 829.67 431.17C829.67 429.513 828.327 428.17 826.67 428.17C825.013 428.17 823.67 429.513 823.67 431.17C823.67 432.827 825.013 434.17 826.67 434.17Z"></path>
<path fill="#6E7683" d="M808.89 444.43C810.547 444.43 811.89 443.087 811.89 441.43C811.89 439.773 810.547 438.43 808.89 438.43C807.233 438.43 805.89 439.773 805.89 441.43C805.89 443.087 807.233 444.43 808.89 444.43Z"></path>
<path fill="#6E7683" d="M791.11 454.7C792.767 454.7 794.11 453.357 794.11 451.7C794.11 450.043 792.767 448.7 791.11 448.7C789.453 448.7 788.11 450.043 788.11 451.7C788.11 453.357 789.453 454.7 791.11 454.7Z"></path>
<path fill="#6E7683" d="M773.33 464.96C774.987 464.96 776.33 463.617 776.33 461.96C776.33 460.303 774.987 458.96 773.33 458.96C771.673 458.96 770.33 460.303 770.33 461.96C770.33 463.617 771.673 464.96 773.33 464.96Z"></path>
<path fill="#6E7683" d="M755.56 475.22C757.217 475.22 758.56 473.877 758.56 472.22C758.56 470.563 757.217 469.22 755.56 469.22C753.903 469.22 752.56 470.563 752.56 472.22C752.56 473.877 753.903 475.22 755.56 475.22Z"></path>
<path fill="#6E7683" d="M702.22 321.26C703.877 321.26 705.22 319.917 705.22 318.26C705.22 316.603 703.877 315.26 702.22 315.26C700.563 315.26 699.22 316.603 699.22 318.26C699.22 319.917 700.563 321.26 702.22 321.26Z"></path>
<path fill="#6E7683" d="M702.22 341.79C703.877 341.79 705.22 340.447 705.22 338.79C705.22 337.133 703.877 335.79 702.22 335.79C700.563 335.79 699.22 337.133 699.22 338.79C699.22 340.447 700.563 341.79 702.22 341.79Z"></path>
<path fill="#6E7683" d="M702.22 362.32C703.877 362.32 705.22 360.977 705.22 359.32C705.22 357.663 703.877 356.32 702.22 356.32C700.563 356.32 699.22 357.663 699.22 359.32C699.22 360.977 700.563 362.32 702.22 362.32Z"></path>
<path fill="#6E7683" d="M702.22 382.85C703.877 382.85 705.22 381.507 705.22 379.85C705.22 378.193 703.877 376.85 702.22 376.85C700.563 376.85 699.22 378.193 699.22 379.85C699.22 381.507 700.563 382.85 702.22 382.85Z"></path>
<path fill="#6E7683" d="M702.22 403.38C703.877 403.38 705.22 402.037 705.22 400.38C705.22 398.723 703.877 397.38 702.22 397.38C700.563 397.38 699.22 398.723 699.22 400.38C699.22 402.037 700.563 403.38 702.22 403.38Z"></path>
<path fill="#6E7683" d="M702.22 423.9C703.877 423.9 705.22 422.557 705.22 420.9C705.22 419.244 703.877 417.9 702.22 417.9C700.563 417.9 699.22 419.244 699.22 420.9C699.22 422.557 700.563 423.9 702.22 423.9Z"></path>
<path fill="#6E7683" d="M702.22 444.43C703.877 444.43 705.22 443.087 705.22 441.43C705.22 439.773 703.877 438.43 702.22 438.43C700.563 438.43 699.22 439.773 699.22 441.43C699.22 443.087 700.563 444.43 702.22 444.43Z"></path>
<path fill="#6E7683" d="M702.22 464.96C703.877 464.96 705.22 463.617 705.22 461.96C705.22 460.303 703.877 458.96 702.22 458.96C700.563 458.96 699.22 460.303 699.22 461.96C699.22 463.617 700.563 464.96 702.22 464.96Z"></path>
<path fill="#6E7683" d="M702.22 485.49C703.877 485.49 705.22 484.147 705.22 482.49C705.22 480.833 703.877 479.49 702.22 479.49C700.563 479.49 699.22 480.833 699.22 482.49C699.22 484.147 700.563 485.49 702.22 485.49Z"></path>
<path fill="#6E7683" d="M684.44 331.53C686.097 331.53 687.44 330.187 687.44 328.53C687.44 326.873 686.097 325.53 684.44 325.53C682.783 325.53 681.44 326.873 681.44 328.53C681.44 330.187 682.783 331.53 684.44 331.53Z"></path>
<path fill="#6E7683" d="M684.44 352.06C686.097 352.06 687.44 350.717 687.44 349.06C687.44 347.403 686.097 346.06 684.44 346.06C682.783 346.06 681.44 347.403 681.44 349.06C681.44 350.717 682.783 352.06 684.44 352.06Z"></path>
<path fill="#6E7683" d="M684.44 372.58C686.097 372.58 687.44 371.237 687.44 369.58C687.44 367.923 686.097 366.58 684.44 366.58C682.783 366.58 681.44 367.923 681.44 369.58C681.44 371.237 682.783 372.58 684.44 372.58Z"></path>
<path fill="#6E7683" d="M684.44 393.11C686.097 393.11 687.44 391.767 687.44 390.11C687.44 388.453 686.097 387.11 684.44 387.11C682.783 387.11 681.44 388.453 681.44 390.11C681.44 391.767 682.783 393.11 684.44 393.11Z"></path>
<path fill="#6E7683" d="M684.44 413.64C686.097 413.64 687.44 412.297 687.44 410.64C687.44 408.983 686.097 407.64 684.44 407.64C682.783 407.64 681.44 408.983 681.44 410.64C681.44 412.297 682.783 413.64 684.44 413.64Z"></path>
<path fill="#6E7683" d="M684.44 434.17C686.097 434.17 687.44 432.827 687.44 431.17C687.44 429.513 686.097 428.17 684.44 428.17C682.783 428.17 681.44 429.513 681.44 431.17C681.44 432.827 682.783 434.17 684.44 434.17Z"></path>
<path fill="#6E7683" d="M684.44 454.7C686.097 454.7 687.44 453.357 687.44 451.7C687.44 450.043 686.097 448.7 684.44 448.7C682.783 448.7 681.44 450.043 681.44 451.7C681.44 453.357 682.783 454.7 684.44 454.7Z"></path>
<path fill="#6E7683" d="M666.67 341.79C668.327 341.79 669.67 340.447 669.67 338.79C669.67 337.133 668.327 335.79 666.67 335.79C665.013 335.79 663.67 337.133 663.67 338.79C663.67 340.447 665.013 341.79 666.67 341.79Z"></path>
<path fill="#6E7683" d="M666.67 362.32C668.327 362.32 669.67 360.977 669.67 359.32C669.67 357.663 668.327 356.32 666.67 356.32C665.013 356.32 663.67 357.663 663.67 359.32C663.67 360.977 665.013 362.32 666.67 362.32Z"></path>
<path fill="#6E7683" d="M666.67 382.85C668.327 382.85 669.67 381.507 669.67 379.85C669.67 378.193 668.327 376.85 666.67 376.85C665.013 376.85 663.67 378.193 663.67 379.85C663.67 381.507 665.013 382.85 666.67 382.85Z"></path>
<path fill="#6E7683" d="M666.67 403.38C668.327 403.38 669.67 402.037 669.67 400.38C669.67 398.723 668.327 397.38 666.67 397.38C665.013 397.38 663.67 398.723 663.67 400.38C663.67 402.037 665.013 403.38 666.67 403.38Z"></path>
<path fill="#6E7683" d="M666.67 423.9C668.327 423.9 669.67 422.557 669.67 420.9C669.67 419.244 668.327 417.9 666.67 417.9C665.013 417.9 663.67 419.244 663.67 420.9C663.67 422.557 665.013 423.9 666.67 423.9Z"></path>
<path fill="#6E7683" d="M666.67 444.43C668.327 444.43 669.67 443.087 669.67 441.43C669.67 439.773 668.327 438.43 666.67 438.43C665.013 438.43 663.67 439.773 663.67 441.43C663.67 443.087 665.013 444.43 666.67 444.43Z"></path>
<path fill="#6E7683" d="M648.89 352.06C650.547 352.06 651.89 350.717 651.89 349.06C651.89 347.403 650.547 346.06 648.89 346.06C647.233 346.06 645.89 347.403 645.89 349.06C645.89 350.717 647.233 352.06 648.89 352.06Z"></path>
<path fill="#6E7683" d="M648.89 372.58C650.547 372.58 651.89 371.237 651.89 369.58C651.89 367.923 650.547 366.58 648.89 366.58C647.233 366.58 645.89 367.923 645.89 369.58C645.89 371.237 647.233 372.58 648.89 372.58Z"></path>
<path fill="#6E7683" d="M648.89 393.11C650.547 393.11 651.89 391.767 651.89 390.11C651.89 388.453 650.547 387.11 648.89 387.11C647.233 387.11 645.89 388.453 645.89 390.11C645.89 391.767 647.233 393.11 648.89 393.11Z"></path>
<path fill="#6E7683" d="M648.89 413.64C650.547 413.64 651.89 412.297 651.89 410.64C651.89 408.983 650.547 407.64 648.89 407.64C647.233 407.64 645.89 408.983 645.89 410.64C645.89 412.297 647.233 413.64 648.89 413.64Z"></path>
<path fill="#6E7683" d="M648.89 434.17C650.547 434.17 651.89 432.827 651.89 431.17C651.89 429.513 650.547 428.17 648.89 428.17C647.233 428.17 645.89 429.513 645.89 431.17C645.89 432.827 647.233 434.17 648.89 434.17Z"></path>
<path fill="#6E7683" d="M631.11 362.32C632.767 362.32 634.11 360.977 634.11 359.32C634.11 357.663 632.767 356.32 631.11 356.32C629.453 356.32 628.11 357.663 628.11 359.32C628.11 360.977 629.453 362.32 631.11 362.32Z"></path>
<path fill="#6E7683" d="M631.11 382.85C632.767 382.85 634.11 381.507 634.11 379.85C634.11 378.193 632.767 376.85 631.11 376.85C629.453 376.85 628.11 378.193 628.11 379.85C628.11 381.507 629.453 382.85 631.11 382.85Z"></path>
<path fill="#6E7683" d="M631.11 403.38C632.767 403.38 634.11 402.037 634.11 400.38C634.11 398.723 632.767 397.38 631.11 397.38C629.453 397.38 628.11 398.723 628.11 400.38C628.11 402.037 629.453 403.38 631.11 403.38Z"></path>
<path fill="#6E7683" d="M631.11 423.9C632.767 423.9 634.11 422.557 634.11 420.9C634.11 419.244 632.767 417.9 631.11 417.9C629.453 417.9 628.11 419.244 628.11 420.9C628.11 422.557 629.453 423.9 631.11 423.9Z"></path>
<path fill="#6E7683" d="M613.33 372.58C614.987 372.58 616.33 371.237 616.33 369.58C616.33 367.923 614.987 366.58 613.33 366.58C611.673 366.58 610.33 367.923 610.33 369.58C610.33 371.237 611.673 372.58 613.33 372.58Z"></path>
<path fill="#6E7683" d="M613.33 393.11C614.987 393.11 616.33 391.767 616.33 390.11C616.33 388.453 614.987 387.11 613.33 387.11C611.673 387.11 610.33 388.453 610.33 390.11C610.33 391.767 611.673 393.11 613.33 393.11Z"></path>
<path fill="#6E7683" d="M613.33 413.64C614.987 413.64 616.33 412.297 616.33 410.64C616.33 408.983 614.987 407.64 613.33 407.64C611.673 407.64 610.33 408.983 610.33 410.64C610.33 412.297 611.673 413.64 613.33 413.64Z"></path>
<path fill="#6E7683" d="M595.56 382.85C597.217 382.85 598.56 381.507 598.56 379.85C598.56 378.193 597.217 376.85 595.56 376.85C593.903 376.85 592.56 378.193 592.56 379.85C592.56 381.507 593.903 382.85 595.56 382.85Z"></path>
<path fill="#6E7683" d="M595.56 403.38C597.217 403.38 598.56 402.037 598.56 400.38C598.56 398.723 597.217 397.38 595.56 397.38C593.903 397.38 592.56 398.723 592.56 400.38C592.56 402.037 593.903 403.38 595.56 403.38Z"></path>
<path fill="#6E7683" d="M577.78 393.11C579.437 393.11 580.78 391.767 580.78 390.11C580.78 388.453 579.437 387.11 577.78 387.11C576.123 387.11 574.78 388.453 574.78 390.11C574.78 391.767 576.123 393.11 577.78 393.11Z"></path>
<path fill="#6E7683" d="M560 403.38C561.657 403.38 563 402.037 563 400.38C563 398.723 561.657 397.38 560 397.38C558.343 397.38 557 398.723 557 400.38C557 402.037 558.343 403.38 560 403.38Z"></path>
<path fill="#6E7683" d="M577.78 413.64C579.437 413.64 580.78 412.297 580.78 410.64C580.78 408.983 579.437 407.64 577.78 407.64C576.123 407.64 574.78 408.983 574.78 410.64C574.78 412.297 576.123 413.64 577.78 413.64Z"></path>
<path fill="#6E7683" d="M595.56 423.9C597.217 423.9 598.56 422.557 598.56 420.9C598.56 419.244 597.217 417.9 595.56 417.9C593.903 417.9 592.56 419.244 592.56 420.9C592.56 422.557 593.903 423.9 595.56 423.9Z"></path>
<path fill="#6E7683" d="M613.33 434.17C614.987 434.17 616.33 432.827 616.33 431.17C616.33 429.513 614.987 428.17 613.33 428.17C611.673 428.17 610.33 429.513 610.33 431.17C610.33 432.827 611.673 434.17 613.33 434.17Z"></path>
<path fill="#6E7683" d="M631.11 444.43C632.767 444.43 634.11 443.087 634.11 441.43C634.11 439.773 632.767 438.43 631.11 438.43C629.453 438.43 628.11 439.773 628.11 441.43C628.11 443.087 629.453 444.43 631.11 444.43Z"></path>
<path fill="#6E7683" d="M648.89 454.7C650.547 454.7 651.89 453.357 651.89 451.7C651.89 450.043 650.547 448.7 648.89 448.7C647.233 448.7 645.89 450.043 645.89 451.7C645.89 453.357 647.233 454.7 648.89 454.7Z"></path>
<path fill="#6E7683" d="M666.67 464.96C668.327 464.96 669.67 463.617 669.67 461.96C669.67 460.303 668.327 458.96 666.67 458.96C665.013 458.96 663.67 460.303 663.67 461.96C663.67 463.617 665.013 464.96 666.67 464.96Z"></path>
<path fill="#6E7683" d="M684.44 475.22C686.097 475.22 687.44 473.877 687.44 472.22C687.44 470.563 686.097 469.22 684.44 469.22C682.783 469.22 681.44 470.563 681.44 472.22C681.44 473.877 682.783 475.22 684.44 475.22Z"></path>
</g>
<path fill="#9EA6B3" d="M560.001 534H560V535.866V535.869V545.868V546H560.001C560.058 550.489 563.054 554.968 568.986 558.393L698.305 633.048C710.287 639.965 729.713 639.965 741.695 633.048L871.014 558.393C876.946 554.968 879.942 550.489 879.999 546H880V534H879.999C879.942 538.489 876.946 542.968 871.014 546.393L741.695 621.048C729.713 627.965 710.287 627.965 698.305 621.048L568.986 546.393C563.054 542.968 560.058 538.489 560.001 534Z" clip-rule="evenodd" fill-rule="evenodd"></path>
<path fill="#8690A0" d="M560.001 553.868H560V555.735V555.737V565.736V565.868H560.001C560.058 570.357 563.054 574.836 568.986 578.261L698.305 652.916C710.287 659.833 729.713 659.833 741.695 652.916L871.014 578.261C876.946 574.836 879.942 570.357 879.999 565.868H880V553.868H879.999C879.942 558.357 876.946 562.836 871.014 566.261L741.695 640.916C729.713 647.833 710.287 647.833 698.305 640.916L568.986 566.261C563.054 562.836 560.058 558.357 560.001 553.868Z" clip-rule="evenodd" fill-rule="evenodd"></path>
<path fill="#6E7683" d="M560.001 573.868H560V575.735V575.737V585.736V585.868H560.001C560.058 590.357 563.054 594.836 568.986 598.261L698.305 672.916C710.287 679.833 729.713 679.833 741.695 672.916L871.014 598.261C876.946 594.836 879.942 590.357 879.999 585.868H880V573.868H879.999C879.942 578.357 876.946 582.836 871.014 586.261L741.695 660.916C729.713 667.833 710.287 667.833 698.305 660.916L568.986 586.261C563.054 582.836 560.058 578.357 560.001 573.868Z" clip-rule="evenodd" fill-rule="evenodd"></path>
<path fill="#565D67" d="M560.001 593.868H560V595.735V595.737V605.736V605.868H560.001C560.058 610.357 563.054 614.836 568.986 618.261L698.305 692.916C710.287 699.833 729.713 699.833 741.695 692.916L871.014 618.261C876.946 614.836 879.942 610.357 879.999 605.868H880V593.868H879.999C879.942 598.357 876.946 602.836 871.014 606.261L741.695 680.916C729.713 687.833 710.287 687.833 698.305 680.916L568.986 606.261C563.054 602.836 560.058 598.357 560.001 593.868Z" clip-rule="evenodd" fill-rule="evenodd"></path>
<path fill="#3F434A" d="M560.001 613.868H560V615.735V615.737V625.736V625.868H560.001C560.058 630.357 563.054 634.836 568.986 638.261L698.305 712.916C710.287 719.833 729.713 719.833 741.695 712.916L871.014 638.261C876.946 634.836 879.942 630.357 879.999 625.868H880V613.868H879.999C879.942 618.357 876.946 622.836 871.014 626.261L741.695 700.916C729.713 707.833 710.287 707.833 698.305 700.916L568.986 626.261C563.054 622.836 560.058 618.357 560.001 613.868Z" clip-rule="evenodd" fill-rule="evenodd"></path>
<path fill="#272A2E" d="M560 176.368L720 84L880 176.368L720 268.736L560 176.368Z"></path>
<path fill="#1B1D20" d="M560 176.368L720 84L730.256 89.921L570.256 182.289L560 176.368Z"></path>
<path fill="#3F434A" d="M590.769 182.289L631.795 158.605L761.026 233.21L720 256.894L590.769 182.289Z"></path>
<path fill="#565D67" d="M590.769 182.289L631.795 158.605L635.897 160.973L594.872 184.657L590.769 182.289Z"></path>
<path fill="#565D67" d="M601.026 188.21L642.051 164.526L646.154 166.894L605.128 190.578L601.026 188.21Z"></path>
<path fill="#565D67" d="M611.282 194.131L652.308 170.447L656.41 172.815L615.385 196.499L611.282 194.131Z"></path>
<path fill="#565D67" d="M621.538 200.052L662.564 176.368L666.667 178.736L625.641 202.42L621.538 200.052Z"></path>
<path fill="#565D67" d="M631.795 205.973L672.821 182.289L676.923 184.657L635.897 208.341L631.795 205.973Z"></path>
<path fill="#565D67" d="M642.051 211.894L683.077 188.21L687.179 190.579L646.154 214.263L642.051 211.894Z"></path>
<path fill="#565D67" d="M652.308 217.815L674.872 204.789L678.974 207.157L656.41 220.184L652.308 217.815Z"></path>
<path fill="#3F434A" d="M642.051 152.684L730.256 101.763L859.487 176.368L771.282 227.289L642.051 152.684Z"></path>
<path fill="#565D67" d="M642.051 152.684L730.256 101.763L734.359 104.132L646.154 155.052L642.051 152.684Z"></path>
<path fill="#565D67" d="M652.308 158.605L719.487 119.822L723.59 122.191L656.41 160.973L652.308 158.605Z"></path>
<path fill="#565D67" d="M723.077 117.75L740.513 107.684L744.615 110.052L727.18 120.118L723.077 117.75Z"></path>
<path fill="#565D67" d="M662.564 164.526L750.769 113.605L754.872 115.974L666.667 166.894L662.564 164.526Z"></path>
<path fill="#565D67" d="M672.821 170.447L728.205 138.473L732.308 140.842L676.923 172.815L672.821 170.447Z"></path>
<path fill="#565D67" d="M713.846 194.131L802.051 143.21L806.154 145.579L717.949 196.499L713.846 194.131Z"></path>
<path fill="#565D67" d="M724.103 200.052L812.308 149.131L816.41 151.5L728.205 202.42L724.103 200.052Z"></path>
<path fill="#565D67" d="M734.359 205.973L810.769 161.861L814.872 164.23L738.462 208.341L734.359 205.973Z"></path>
<path fill="#565D67" d="M744.615 211.894L832.821 160.973L836.923 163.342L748.718 214.263L744.615 211.894Z"></path>
<path fill="#F36458" d="M560 176.368L570.256 170.447L580.513 176.368L570.256 182.289L560 176.368Z"></path>
<path fill="#565D67" d="M683.077 176.368L771.282 125.447L806.154 145.579L717.949 196.499L683.077 176.368Z"></path>
<g clip-path="url(#clip1_142_2219)">
<path fill="#272A2E" d="M10 67C10 65.3431 11.3431 64 13 64H26C27.6569 64 29 65.3431 29 67V80C29 81.6569 27.6569 83 26 83H13C11.3431 83 10 81.6569 10 80V67ZM79 95H-10V202.336C-4.05646 196.558 4.05627 193 13 193C31.2254 193 46 207.775 46 226C46 244.225 31.2254 259 13 259C4.05627 259 -4.05646 255.442 -10 249.664V355.5H4.08012C6.24271 360.588 11.1706 364.143 16.9036 364.143H30.8976V393L58.8855 364.143H86.8735C94.6021 364.143 100.867 357.683 100.867 349.714V316H134C136.761 316 139 313.761 139 311V308.011C139 306.226 137.999 304.627 136.669 303.437C133.803 300.874 132 297.147 132 293C132 285.268 138.268 279 146 279C153.732 279 160 285.268 160 293C160 297.147 158.197 300.874 155.331 303.437C154.001 304.627 153 306.226 153 308.011V311C153 313.761 155.239 316 158 316H185.5C187.157 316 188.5 314.657 188.5 313V279.5C188.5 276.739 190.739 274.5 193.5 274.5H195.489C197.274 274.5 198.873 275.501 200.063 276.831C202.626 279.697 206.353 281.5 210.5 281.5C218.232 281.5 224.5 275.232 224.5 267.5H285C286.657 267.5 288 266.157 288 264.5V200C288 198.343 286.657 197 285 197H209.5C209.5 159.721 179.279 129.5 142 129.5H89V105C89 99.4771 84.5229 95 79 95ZM301 244C299.343 244 298 245.343 298 247V260C298 261.657 299.343 263 301 263H314C315.657 263 317 261.657 317 260V247C317 245.343 315.657 244 314 244H301ZM113 326C111.343 326 110 327.343 110 329V339C110 340.657 111.343 342 113 342H123C124.657 342 126 340.657 126 339V329C126 327.343 124.657 326 123 326H113ZM225.085 216.93H214.343V219.442H232.681C232.566 219.828 232.424 220.27 232.251 220.744C231.655 222.372 230.734 224.279 229.413 225.67L226.278 228.968L225.133 227.763C223.734 226.291 222.803 224.82 222.224 223.724C221.935 223.177 221.735 222.725 221.61 222.417C221.547 222.263 221.503 222.145 221.476 222.069C221.462 222.031 221.453 222.004 221.448 221.988L221.442 221.973C221.442 221.973 221.442 221.973 221.414 221.983L221.374 221.997L221.281 222.031C221.133 222.083 220.851 222.183 220.311 222.372L219.669 222.597L219.454 222.673L219.223 222.754C219.179 222.77 219.179 222.77 219.179 222.77L219.18 222.772L219.181 222.777L219.185 222.789L219.198 222.828L219.214 222.873C219.222 222.897 219.232 222.925 219.243 222.957C219.282 223.065 219.339 223.217 219.416 223.406C219.57 223.785 219.805 224.314 220.138 224.944C220.802 226.202 221.86 227.871 223.445 229.539L224.59 230.744L215.496 240.312L215.49 240.319L215.489 240.32L217.177 242.096L217.182 242.091L226.352 232.443L231.482 236.941L233.01 235.011L228.046 230.659L231.101 227.446C232.763 225.697 233.831 223.418 234.479 221.645C234.796 220.778 235.021 220.008 235.169 219.442H238.213V216.93H227.472V214H225.085V216.93ZM241.079 226.558L249.259 247H246.669L244.435 241.418H235.97L233.736 247H231.146L239.326 226.558H241.079ZM236.975 238.906H243.43L240.202 230.84L236.975 238.906ZM20.2498 117.121L32.7406 130L20.2498 142.878L24.3646 147.121L40.9703 130L24.3646 112.878L20.2498 117.121ZM44.1295 148H63.5271V142H44.1295V148ZM118.325 174.361V213.639C118.325 215.984 120.896 217.423 122.895 216.196L154.894 196.557C156.802 195.386 156.802 192.614 154.894 191.443L122.895 171.804C120.896 170.577 118.325 172.016 118.325 174.361ZM40.5937 310.551C40.5937 312.992 38.6818 314.965 36.3161 314.965C33.9504 314.965 32.0384 312.992 32.0384 310.551C32.0384 308.11 33.9504 306.137 36.3161 306.137H40.5937V310.551ZM42.7326 310.551C42.7326 308.11 44.6446 306.137 47.0102 306.137C49.3759 306.137 51.2879 308.11 51.2879 310.551V321.586C51.2879 324.027 49.3759 326 47.0102 326C44.6446 326 42.7326 324.027 42.7326 321.586V310.551ZM42.7326 288.414C42.7326 290.855 44.6445 292.828 47.0102 292.828H51.2879V288.414C51.2879 285.973 49.3759 284 47.0102 284C44.6445 284 42.7326 285.973 42.7326 288.414ZM51.2879 299.482C51.2879 297.041 49.3759 295.068 47.0102 295.068H36.2837C33.918 295.068 32.006 297.041 32.006 299.482C32.006 301.924 33.918 303.896 36.2837 303.896H47.0102C49.3759 303.896 51.2879 301.924 51.2879 299.482ZM64.1533 299.482C64.1533 297.041 66.0652 295.068 68.4309 295.068C70.7966 295.068 72.7086 297.041 72.7086 299.482C72.7086 301.924 70.7966 303.896 68.4309 303.896H64.1533V299.482ZM62.0144 299.482C62.0144 301.924 60.1024 303.896 57.7368 303.896C55.3711 303.896 53.4591 301.924 53.4591 299.482V288.414C53.4591 285.973 55.3711 284 57.7368 284C60.1024 284 62.0144 285.973 62.0144 288.414V299.482ZM62.0144 321.586C62.0144 319.145 60.1024 317.172 57.7368 317.172H53.4591V321.586C53.4591 324.027 55.3711 326 57.7368 326C60.1024 326 62.0144 324.027 62.0144 321.586ZM53.4591 310.551C53.4591 312.992 55.3711 314.965 57.7368 314.965H68.4633C70.829 314.965 72.741 312.992 72.741 310.551C72.741 308.11 70.829 306.137 68.4633 306.137H57.7368C55.3711 306.137 53.4591 308.11 53.4591 310.551Z" clip-rule="evenodd" fill-rule="evenodd"></path>
<path fill="#272A2E" d="M31.7748 222.887C32.321 221.385 32.4575 219.883 32.321 218.381C32.1845 216.879 31.6383 215.377 30.9556 214.012C29.7267 211.964 27.9516 210.325 25.9034 209.369C23.7187 208.414 21.3975 208.141 19.0762 208.687C17.9839 207.594 16.755 206.639 15.3895 205.956C14.0241 205.273 12.3856 205 10.8836 205C8.56232 205 6.24107 205.683 4.32946 207.048C2.41784 208.414 1.0524 210.325 0.369676 212.51C-1.26885 212.92 -2.63429 213.602 -3.99974 214.422C-5.22863 215.377 -6.18444 216.606 -7.00371 217.835C-8.2326 219.883 -8.64223 222.205 -8.36915 224.526C-8.09606 226.847 -7.14025 229.032 -5.63826 230.807C-6.18444 232.309 -6.32098 233.811 -6.18444 235.313C-6.0479 236.815 -5.50172 238.317 -4.819 239.682C-3.5901 241.73 -1.81503 243.369 0.233132 244.325C2.41784 245.281 4.73909 245.554 7.06034 245.007C8.15269 246.1 9.38159 247.056 10.747 247.738C12.1125 248.421 13.751 248.694 15.253 248.694C17.5742 248.694 19.8955 248.011 21.8071 246.646C23.7187 245.281 25.0842 243.369 25.7669 241.184C27.2689 240.911 28.7709 240.228 29.9997 239.273C31.2286 238.317 32.321 237.224 33.0037 235.859C34.2326 233.811 34.6422 231.49 34.3692 229.168C34.0961 226.847 33.2768 224.662 31.7748 222.887ZM15.3895 245.827C13.2048 245.827 11.5663 245.144 10.0643 243.915C10.0643 243.915 10.2009 243.779 10.3374 243.779L19.0762 238.726C19.3493 238.59 19.4859 238.453 19.6224 238.18C19.7589 237.907 19.7589 237.771 19.7589 237.497V225.209L23.4456 227.393V237.497C23.5822 242.277 19.7589 245.827 15.3895 245.827ZM-2.22466 238.317C-3.18047 236.678 -3.5901 234.767 -3.18047 232.855C-3.18047 232.855 -3.04393 232.992 -2.90738 232.992L5.83144 238.044C6.10453 238.18 6.24107 238.18 6.51416 238.18C6.78725 238.18 7.06034 238.18 7.19688 238.044L17.8473 231.899V236.132L8.97196 241.321C7.06034 242.413 4.87563 242.686 2.82747 242.14C0.642764 241.594 -1.13231 240.228 -2.22466 238.317ZM-4.54591 219.337C-3.5901 217.699 -2.08812 216.47 -0.313045 215.787V216.06V226.164C-0.313045 226.437 -0.313044 226.711 -0.1765 226.847C-0.0399558 227.12 0.0965877 227.257 0.369676 227.393L11.0201 233.538L7.33343 235.722L-1.4054 230.67C-3.31701 229.578 -4.68246 227.803 -5.22863 225.755C-5.77481 223.707 -5.63826 221.249 -4.54591 219.337ZM25.6303 226.301L14.9799 220.156L18.6666 217.972L27.4054 223.024C28.7709 223.843 29.8632 224.935 30.5459 226.301C31.2286 227.666 31.6383 229.168 31.5017 230.807C31.3652 232.309 30.819 233.811 29.8632 235.04C28.9074 236.269 27.6785 237.224 26.1765 237.771V227.393C26.1765 227.12 26.1765 226.847 26.04 226.711C26.04 226.711 25.9034 226.437 25.6303 226.301ZM29.317 220.839C29.317 220.839 29.1805 220.703 29.0439 220.703L20.3051 215.65C20.032 215.514 19.8955 215.514 19.6224 215.514C19.3493 215.514 19.0762 215.514 18.9397 215.65L8.28923 221.795V217.562L17.1646 212.373C18.53 211.554 20.032 211.281 21.6706 211.281C23.1725 211.281 24.6745 211.827 26.04 212.783C27.2689 213.739 28.3612 214.968 28.9074 216.333C29.4536 217.699 29.5901 219.337 29.317 220.839ZM6.37762 228.486L2.69093 226.301V216.06C2.69093 214.558 3.10056 212.92 3.91982 211.691C4.73909 210.325 5.96798 209.369 7.33343 208.687C8.69887 208.004 10.3374 207.731 11.8394 208.004C13.3414 208.141 14.8434 208.823 16.0723 209.779C16.0723 209.779 15.9357 209.916 15.7992 209.916L7.06034 214.968C6.78725 215.104 6.6507 215.241 6.51416 215.514C6.37762 215.787 6.37762 215.924 6.37762 216.197V228.486ZM8.28923 224.116L13.0683 221.385L17.8473 224.116V229.578L13.0683 232.309L8.28923 229.578V224.116Z"></path>
<g clip-path="url(#clip2_142_2219)">
<path fill="#272A2E" d="M119 650.5V661.375C119 677.921 94.6676 693.291 58.5 695.282V748.5C58.5 750.157 57.1569 751.5 55.5 751.5H-10V677.414C-15.1679 672.528 -18 667.02 -18 661.375V634.575C-17.2652 635.53 -16.426 636.452 -15.4929 637.338C-11.7353 640.908 -6.38023 643.987 0.105211 646.51C13.0834 651.558 30.9039 654.499 50.5 654.499C70.0961 654.499 87.9166 651.558 100.895 646.51C107.38 643.987 112.735 640.908 116.493 637.338C120.261 633.759 122.5 629.603 122.5 624.999H119.5C119.5 628.546 117.793 631.965 114.427 635.163C111.049 638.372 106.08 641.274 99.8073 643.714C87.2695 648.591 69.84 651.499 50.5 651.499C31.16 651.499 13.7305 648.591 1.19273 643.714C-5.07981 641.274 -10.0492 638.372 -13.4266 635.163C-15.7397 632.966 -17.2692 630.664 -18 628.289V591.575C-17.2652 592.53 -16.426 593.452 -15.4929 594.338C-11.7353 597.908 -6.38024 600.987 0.105211 603.51C13.0834 608.558 30.9039 611.499 50.5 611.499C70.0961 611.499 87.9166 608.558 100.895 603.51C107.38 600.987 112.735 597.908 116.493 594.338C120.261 590.759 122.5 586.603 122.5 581.999H119.5C119.5 585.546 117.793 588.965 114.427 592.163C111.049 595.372 106.08 598.274 99.8073 600.714C87.2695 605.591 69.84 608.499 50.5 608.499C31.16 608.499 13.7305 605.591 1.19273 600.714C-5.07981 598.274 -10.0492 595.372 -13.4266 592.163C-15.7397 589.966 -17.2692 587.664 -18 585.289V545.792C-12.3908 558.961 16.1433 567.999 50.5 567.999C88.8838 567.999 120 556.718 120 540.999C120 532.803 111.54 525.813 98 521V524.192C98.1936 524.263 98.3859 524.336 98.5771 524.408C104.657 526.722 109.361 529.434 112.496 532.347C115.611 535.241 117 538.151 117 540.999C117 543.847 115.611 546.757 112.496 549.652C109.361 552.564 104.657 555.276 98.5771 557.59C86.4337 562.21 69.442 564.999 50.5 564.999C31.558 564.999 14.5663 562.21 2.42288 557.59C-3.65723 555.276 -8.36147 552.564 -11.4962 549.652C-14.6113 546.757 -16 543.847 -16 540.999C-16 538.151 -14.6113 535.241 -11.4962 532.347C-8.43454 529.502 -3.87566 526.848 2 524.571V521.363C-2.69444 523.102 -6.74416 525.109 -10 527.343V406H89.5C100.546 406 109.5 414.954 109.5 426V460.5H136C137.657 460.5 139 461.843 139 463.5V483.475C143.035 482.192 147.333 481.5 151.792 481.5C158.277 481.492 164.675 482.985 170.488 485.86C176.301 488.736 181.371 492.917 185.303 498.078C192.299 490.784 202.046 486.255 212.821 486.255C227.144 486.255 239.644 494.249 246.298 506.117C252.253 503.455 258.702 502.083 265.223 502.091C291.058 502.091 312 523.234 312 549.318C312 575.403 291.058 596.545 265.223 596.545C262.064 596.545 258.984 596.229 256.005 595.628C250.146 606.085 238.972 613.153 226.154 613.153C220.788 613.153 215.712 611.918 211.195 609.707C205.253 623.696 191.409 633.5 175.278 633.5C175.185 633.5 175.093 633.5 175 633.499V647.5C175 649.157 173.657 650.5 172 650.5H119ZM6 759.5C6 757.843 7.34315 756.5 9 756.5H22C23.6569 756.5 25 757.843 25 759.5V772.5C25 774.157 23.6569 775.5 22 775.5H9C7.34315 775.5 6 774.157 6 772.5V759.5ZM314 523.5C318.418 523.5 322 519.918 322 515.5C322 511.082 318.418 507.5 314 507.5C309.582 507.5 306 511.082 306 515.5C306 519.918 309.582 523.5 314 523.5ZM151 456.5C151 458.709 149.209 460.5 147 460.5C144.791 460.5 143 458.709 143 456.5C143 454.291 144.791 452.5 147 452.5C149.209 452.5 151 454.291 151 456.5ZM21 485.379C21 485.366 24.9436 478.833 29.7635 470.862L38.5271 456.37L48.74 448.191C54.357 443.693 58.968 440.007 58.9865 440C59.0049 439.993 58.9311 440.171 58.8223 440.395C58.7135 440.618 53.7231 450.832 47.7325 463.093L36.8406 485.385L28.9203 485.394C24.5641 485.399 21 485.393 21 485.379ZM52.9211 488.276C61.786 486.782 69.1079 485.545 69.192 485.528L69.3449 485.497L60.9756 475.998C56.3724 470.773 52.6062 466.478 52.6062 466.453C52.6062 466.406 61.2483 443.696 61.2969 443.615C61.3131 443.588 67.1943 453.278 75.5532 467.103C83.379 480.046 89.831 490.718 89.891 490.818L90 491L63.4016 490.997L36.8031 490.993L52.9211 488.276ZM187.836 534C194.571 534.011 200.68 537.934 203.463 544.036C206.246 550.138 205.192 557.296 200.765 562.346L179.378 583.649C176.659 586.434 172.922 588.004 169.019 588C165.098 587.999 161.343 586.427 158.601 583.638L157.117 582.177L164.367 574.965L165.911 576.489C166.708 577.34 167.821 577.826 168.99 577.834C170.164 577.847 171.293 577.384 172.117 576.551L192.629 556.144C193.757 554.894 194.374 553.269 194.359 551.589C194.375 549.754 193.655 547.988 192.357 546.684C191.059 545.38 189.291 544.646 187.447 544.645C185.751 544.624 184.109 545.241 182.851 546.374L151.99 577.081L137.22 562.325C134.494 559.195 132.996 555.192 133 551.051C133.026 544.256 137.091 538.12 143.357 535.418C149.622 532.715 156.902 533.957 161.905 538.583L164.005 540.67L156.72 547.918C156.72 547.918 155.558 546.721 155.147 546.36C153.894 545.24 152.264 544.627 150.579 544.645C148.736 544.634 146.966 545.355 145.66 546.647C144.354 547.939 143.62 549.697 143.621 551.529C143.599 553.223 144.217 554.862 145.353 556.123L151.938 562.674L174.942 539.814C178.195 536.116 182.896 533.996 187.836 534ZM37.6581 715.385C36.6103 712.099 34.5505 709.229 31.7733 707.184C28.9961 705.14 25.6436 704.025 22.1949 704C19.2792 703.984 16.414 704.762 13.9072 706.251C11.4004 707.74 9.34678 709.884 7.96695 712.453C5.43097 712.907 3.10621 714.159 1.33104 716.026C-0.444128 717.894 -1.57705 720.279 -1.90284 722.834C-2.22863 725.39 -1.73028 727.983 -0.480316 730.236C0.769646 732.489 2.70597 734.284 5.04684 735.36L5.3506 735.498H5.37085V732.055C3.76501 731.069 2.50786 729.606 1.7756 727.87C1.04334 726.134 0.872673 724.212 1.28752 722.374C1.70237 720.536 2.68194 718.874 4.08893 717.62C5.49593 716.367 7.25982 715.585 9.13338 715.385L9.98389 715.296L10.3565 714.53C11.4145 712.288 13.0905 710.395 15.1876 709.073C17.2847 707.75 19.7158 707.054 22.1949 707.066C25.1489 707.087 28.0112 708.095 30.3266 709.93C32.6419 711.764 34.2774 714.32 34.9729 717.191L35.2645 718.35H36.4796C38.4383 718.39 40.3036 719.194 41.6771 720.591C43.0507 721.988 43.8235 723.867 43.8305 725.826C43.8305 728.681 42.1821 731.018 39.3754 732.201V735.465L39.5779 735.401C44.0897 733.922 46.8923 730.253 46.8923 725.826C46.8738 723.264 45.9284 720.795 44.231 718.876C42.5336 716.957 40.1988 715.717 37.6581 715.385ZM16.9298 735.773L16.2575 735.101C15.8051 734.647 15.5503 734.032 15.5487 733.392V723.266C15.5498 723.231 15.5647 723.197 15.5904 723.172C15.6161 723.147 15.6506 723.133 15.6864 723.133H16.8366C16.8627 723.132 16.888 723.124 16.9095 723.109C16.931 723.095 16.9477 723.074 16.9576 723.05C16.9675 723.026 16.9701 722.999 16.9652 722.974C16.9602 722.948 16.9479 722.925 16.9298 722.906L12.4301 718.402C12.4177 718.39 12.4029 718.38 12.3865 718.373C12.3702 718.366 12.3527 718.362 12.335 718.362C12.3172 718.362 12.2997 718.366 12.2834 718.373C12.267 718.38 12.2522 718.39 12.2398 718.402L7.73609 722.906C7.71769 722.925 7.70531 722.949 7.7005 722.975C7.6957 723.001 7.69868 723.027 7.70907 723.052C7.71947 723.076 7.73681 723.097 7.75892 723.111C7.78102 723.125 7.8069 723.133 7.83329 723.133H8.96731C9.00276 723.133 9.03675 723.147 9.06182 723.172C9.08688 723.197 9.10096 723.231 9.10096 723.266V733.57C9.10096 734.214 9.35699 734.832 9.81271 735.288C10.2684 735.744 10.8865 736 11.531 736H16.8366C16.8627 735.999 16.888 735.991 16.9095 735.976C16.931 735.962 16.9477 735.941 16.9576 735.917C16.9675 735.893 16.9701 735.866 16.9652 735.841C16.9602 735.815 16.9479 735.792 16.9298 735.773ZM26.2086 735.101L26.8849 735.773C26.9033 735.792 26.9157 735.816 26.9205 735.842C26.9253 735.868 26.9224 735.895 26.912 735.919C26.9016 735.943 26.8842 735.964 26.8621 735.978C26.84 735.993 26.8141 736 26.7877 736H21.4943C20.8498 736 20.2317 735.744 19.776 735.288C19.3203 734.832 19.0642 734.214 19.0642 733.57V725.871C19.0643 725.835 19.0503 725.8 19.0253 725.775C19.0004 725.749 18.9664 725.734 18.9306 725.733H17.7844C17.7584 725.732 17.733 725.724 17.7115 725.71C17.6901 725.695 17.6733 725.674 17.6634 725.65C17.6586 725.638 17.6554 725.626 17.6541 725.613C17.6528 725.6 17.6533 725.587 17.6558 725.574C17.6608 725.548 17.6731 725.525 17.6913 725.506L22.1909 721.01C22.2033 720.998 22.2182 720.988 22.2345 720.981C22.2508 720.974 22.2684 720.971 22.2861 720.971C22.2942 720.971 22.3024 720.971 22.3103 720.973C22.3197 720.975 22.3288 720.977 22.3377 720.981C22.354 720.988 22.3688 720.998 22.3813 721.01L26.8849 725.498C26.9033 725.517 26.9157 725.541 26.9205 725.567C26.9253 725.593 26.9224 725.62 26.912 725.644C26.9016 725.668 26.8842 725.689 26.8621 725.703C26.8544 725.708 26.8463 725.712 26.8378 725.716C26.8299 725.719 26.8217 725.721 26.8133 725.723C26.8049 725.724 26.7964 725.725 26.7877 725.725H25.6375C25.6017 725.726 25.5677 725.741 25.5428 725.767C25.5178 725.792 25.5039 725.827 25.5039 725.863V733.392C25.5044 734.032 25.7577 734.646 26.2086 735.101ZM36.836 735.773L36.1637 735.101C35.7113 734.647 35.4565 734.033 35.4549 733.392V728.455C35.4549 728.419 35.469 728.385 35.494 728.36C35.5191 728.335 35.5531 728.321 35.5885 728.321H36.7428C36.7697 728.321 36.7961 728.313 36.8184 728.299C36.8408 728.284 36.8581 728.262 36.8682 728.237C36.8783 728.212 36.8806 728.185 36.8748 728.159C36.8691 728.133 36.8555 728.109 36.836 728.09L32.3323 723.59C32.3202 723.578 32.3057 723.568 32.2897 723.561C32.2737 723.554 32.2565 723.551 32.2391 723.551C32.2335 723.551 32.2279 723.551 32.2223 723.552C32.2107 723.554 32.1994 723.557 32.1885 723.561C32.1805 723.565 32.1728 723.569 32.1656 723.574C32.1585 723.579 32.152 723.584 32.146 723.59L27.6423 728.09C27.6227 728.109 27.6092 728.133 27.6034 728.159C27.5977 728.185 27.6 728.212 27.6101 728.237C27.6201 728.262 27.6375 728.284 27.6598 728.299C27.6822 728.313 27.7085 728.321 27.7354 728.321H28.8695C28.9049 728.321 28.9389 728.335 28.964 728.36C28.989 728.385 29.0031 728.419 29.0031 728.455V733.57C29.0031 734.214 29.2591 734.832 29.7149 735.288C30.1706 735.744 30.7887 736 31.4332 736H36.7428C36.7627 736 36.7823 735.995 36.7999 735.986C36.8054 735.983 36.8106 735.98 36.8157 735.977C36.8372 735.962 36.8539 735.941 36.8638 735.917C36.8737 735.893 36.8763 735.867 36.8714 735.841C36.8695 735.831 36.8665 735.822 36.8626 735.813C36.8562 735.798 36.8472 735.785 36.836 735.773Z" clip-rule="evenodd" fill-rule="evenodd"></path>
</g>
</g>
<path fill="#272A2E" d="M1405 84C1403.34 84 1402 85.3431 1402 87V100C1402 101.657 1403.34 103 1405 103H1418C1419.66 103 1421 101.657 1421 100V87C1421 85.3431 1419.66 84 1418 84H1405ZM1318.5 116.5H1440L1439.34 296.454L1373.6 258.5C1372.16 257.672 1371.02 258.343 1371.05 260L1372.55 350.562C1372.58 352.219 1373.76 354.233 1375.2 355.062L1438.98 391.888L1438.63 489.063C1438.09 489.021 1437.55 489 1437 489C1428 489 1422.6 495 1419 501C1415.4 495 1410 489 1401 489C1390.2 489 1383 497.133 1383 507.133C1383 517.133 1386.15 522.6 1398.75 536.6C1404.15 542.6 1419 557 1419 557C1419 557 1432.51 543.895 1438.45 537.48L1438 658.5L1432.07 660.478C1432.1 660.672 1432.11 660.773 1432.12 660.777L1392.82 670.524L1302.12 654.833C1302.12 654.833 1313.04 571.026 1313.4 568.054C1313.87 564.131 1313.99 564.012 1318.15 562.704C1318.26 562.586 1323.89 560.825 1332 558.353V539.5H1328.5C1287.67 539.5 1254.56 506.433 1254.5 465.618L1254.69 465.442L1243.18 452.942L1233.13 442.038L1244.63 430.543L1241.37 427.29L1219.55 449.118L1187.67 415.419L1187.25 415.818V415.5L1171.76 397.173L1150.69 419.215L1141.87 410.785L1157.44 394.5H1109C1108.45 394.5 1108 394.052 1108 393.5V380.5C1108 379.948 1108.45 379.5 1109 379.5H1149.5V356C1149.5 354.343 1150.84 353 1152.5 353H1194V345.5C1194 343.843 1195.34 342.5 1197 342.5H1203C1203.41 342.5 1203.82 342.55 1204.21 342.647C1204.29 341.871 1204.4 341.043 1204.56 339.983C1205.96 330.227 1209.68 321.016 1215.5 312.896C1225.95 298.292 1242.45 288.791 1260.06 287.203C1260.64 287.157 1261.27 287.097 1261.66 287.06L1261.66 287.06C1261.78 287.048 1261.88 287.039 1261.94 287.033C1262.6 286.97 1266.23 287.005 1269 287.07V251.5C1269 243.216 1275.72 236.5 1284 236.5H1308.5V126.5C1308.5 120.977 1312.98 116.5 1318.5 116.5ZM1239.79 456.058L1248.49 465.5H1190.51L1209.36 445.041L1217.83 453.997L1219.45 455.715L1221.13 454.043L1229.88 445.294L1239.79 456.058ZM1206.19 441.691L1187.25 462.249V421.669L1206.19 441.691ZM1378.06 268.999L1439.31 304.359L1439.01 383.982L1379.4 349.563L1378.06 268.999ZM1300 404.5H1293.91C1294.03 404.438 1294.16 404.376 1294.28 404.313C1295.35 403.768 1295.55 403.622 1295.41 403.501C1295.31 403.428 1290.76 397.332 1285.31 389.964L1275.39 376.572L1262.97 358.187C1256.13 348.079 1250.51 339.813 1250.46 339.813C1250.41 339.801 1250.36 347.97 1250.34 357.944C1250.3 375.408 1250.29 376.111 1250.07 376.523C1249.76 377.117 1249.52 377.359 1249.01 377.626C1248.62 377.82 1248.28 377.856 1246.45 377.856H1244.35L1243.79 377.505C1243.43 377.275 1243.16 376.972 1242.98 376.62L1242.73 376.075L1242.75 351.775L1242.79 327.464L1243.16 326.991C1243.36 326.737 1243.77 326.409 1244.06 326.252C1244.56 326.009 1244.75 325.985 1246.85 325.985C1249.32 325.985 1249.73 326.082 1250.38 326.785C1250.56 326.979 1257.28 337.111 1265.33 349.315C1273.38 361.519 1284.39 378.184 1289.79 386.364L1299.61 401.235L1300 400.979V404.5ZM1287.32 324.531C1287.9 324.822 1288.38 325.379 1288.55 325.961C1288.64 326.276 1288.67 333.014 1288.64 348.2L1288.61 369.991L1284.76 364.101L1280.91 358.211V342.371C1280.91 332.13 1280.96 326.373 1281.03 326.094C1281.22 325.416 1281.65 324.882 1282.23 324.567C1282.73 324.313 1282.91 324.288 1284.81 324.288C1286.61 324.288 1286.92 324.313 1287.32 324.531ZM1131.32 364.513C1131.32 362.856 1132.67 361.513 1134.32 361.513H1137.32C1138.98 361.513 1140.32 362.856 1140.32 364.513V367.513C1140.32 369.17 1138.98 370.513 1137.32 370.513H1134.32C1132.67 370.513 1131.32 369.17 1131.32 367.513V364.513ZM1258 270C1258 273.314 1255.31 276 1252 276C1248.69 276 1246 273.314 1246 270C1246 266.686 1248.69 264 1252 264C1255.31 264 1258 266.686 1258 270ZM1415 701C1418.31 701 1421 698.314 1421 695C1421 691.686 1418.31 689 1415 689C1411.69 689 1409 691.686 1409 695C1409 698.314 1411.69 701 1415 701ZM1328 131C1328 133.761 1325.76 136 1323 136C1320.24 136 1318 133.761 1318 131C1318 128.239 1320.24 126 1323 126C1325.76 126 1328 128.239 1328 131ZM1339 136C1341.76 136 1344 133.761 1344 131C1344 128.239 1341.76 126 1339 126C1336.24 126 1334 128.239 1334 131C1334 133.761 1336.24 136 1339 136ZM1360 131C1360 133.761 1357.76 136 1355 136C1352.24 136 1350 133.761 1350 131C1350 128.239 1352.24 126 1355 126C1357.76 126 1360 128.239 1360 131ZM1303 248C1301.34 248 1300 249.343 1300 251V253C1300 254.657 1301.34 256 1303 256H1337C1338.66 256 1340 254.657 1340 253V251C1340 249.343 1338.66 248 1337 248H1303ZM1393.14 175C1405.07 175 1411 180.632 1411 189.629C1411 196.358 1406.83 200.746 1401.19 201.478C1405.95 202.429 1408.73 205.135 1409.24 210.474L1409.32 211.456L1409.38 212.374L1409.44 213.233L1409.48 213.88L1409.52 214.644L1409.54 215.08L1409.57 215.773L1409.6 216.427L1409.61 216.803L1409.62 217.405L1409.64 218.094L1409.64 218.427L1409.65 219.392L1409.66 220.398L1409.66 221H1397.35L1397.35 220.749L1397.36 220.262L1397.36 219.787L1397.38 218.636L1397.39 218.251L1397.39 217.646L1397.39 217.259L1397.39 216.854L1397.39 216.536L1397.37 216.09L1397.36 215.617L1397.34 215.115L1397.32 214.58L1397.3 214.299L1397.28 213.86L1397.25 213.399L1397.2 212.747L1397.16 212.23C1397.15 212.07 1397.14 211.914 1397.12 211.762L1397.09 211.462C1396.69 207.925 1395.27 206.48 1392.85 205.997L1392.64 205.959C1392.51 205.936 1392.37 205.915 1392.22 205.896L1392 205.871L1391.95 205.865L1391.89 205.86L1391.67 205.84L1391.44 205.824L1391.2 205.811L1390.97 205.802L1390.73 205.796L1390.48 205.793L1371 205.793V196.212H1390.94C1391.27 196.212 1391.58 196.205 1391.89 196.193L1392.19 196.178L1392.49 196.159L1392.78 196.136L1392.81 196.133L1392.85 196.129L1392.92 196.123L1393.2 196.093C1393.38 196.071 1393.56 196.047 1393.73 196.019L1393.99 195.976C1397.23 195.394 1398.85 193.691 1398.85 190.367C1398.85 186.637 1396.21 184.376 1390.94 184.376H1371V175H1393.14ZM1384.01 213.857C1385.63 213.857 1386.3 214.746 1386.54 215.597L1386.57 215.719L1386.6 215.84L1386.62 215.936L1386.62 215.984L1386.64 216.077L1386.65 216.168L1386.65 216.213L1386.65 216.301L1386.66 216.345L1386.66 216.428V221H1371V213.857H1384.01ZM1366.35 587.549L1370.86 570.431C1370.86 570.431 1366.94 568.41 1359.22 569.005C1339.28 570.193 1330.26 584.221 1331.09 598.01C1331.69 607.217 1337.11 611.07 1341.86 614.443C1345.57 617.08 1348.87 619.425 1349.13 623.806C1349.25 626.184 1347.71 629.631 1343.55 629.869C1337.14 630.344 1329.19 624.282 1329.19 624.282L1326.1 637.358C1326.1 637.358 1334.05 645.917 1348.54 644.966C1360.53 644.253 1368.84 634.624 1368.01 620.478C1367.29 609.611 1359.65 604.713 1353.63 600.851C1349.71 598.334 1346.47 596.258 1346.28 593.255C1346.28 591.829 1346.28 586.242 1355.19 585.647C1361.24 585.172 1366.35 587.549 1366.35 587.549ZM1408.47 389.499C1407.03 388.671 1404.69 388.651 1403.25 389.456L1386.15 398.952C1384.7 399.757 1384.69 401.08 1386.12 401.909L1409.64 415.487C1411.08 416.316 1413.42 416.335 1414.86 415.531L1431.96 406.034C1433.41 405.23 1433.42 403.906 1431.99 403.078L1408.47 389.499ZM1310 471C1304 477 1295 478.5 1295 478.5C1295 478.5 1304 480 1310 486C1316 492 1317.5 501 1317.5 501C1317.5 501 1319 492 1325 486C1331 480 1340 478.5 1340 478.5C1340 478.5 1331 477 1325 471C1319 465 1317.5 456 1317.5 456C1317.5 456 1316 465 1310 471ZM1345 445C1345 445 1351 444 1355 440C1359 436 1360 430 1360 430C1360 430 1361 436 1365 440C1369 444 1375 445 1375 445C1375 445 1369 446 1365 450C1361 454 1360 460 1360 460C1360 460 1359 454 1355 450C1351 446 1345 445 1345 445Z" clip-rule="evenodd" fill-rule="evenodd"></path>
<defs>
<linearGradient gradientUnits="userSpaceOnUse" y2="382.878" x2="197.984" y1="342.537" x1="471.748" id="paint0_linear_142_2219">
<stop stop-color="white"></stop>
<stop stop-opacity="0.3" stop-color="white" offset="0.191625"></stop>
<stop stop-opacity="0" stop-color="white" offset="0.751945"></stop>
</linearGradient>
<linearGradient gradientUnits="userSpaceOnUse" y2="457.544" x2="801.393" y1="338.723" x1="1113.4" id="paint1_linear_142_2219">
<stop stop-color="white"></stop>
<stop stop-opacity="0.3" stop-color="white" offset="0.191625"></stop>
<stop stop-opacity="0" stop-color="white" offset="0.751945"></stop>
</linearGradient>
<linearGradient gradientUnits="userSpaceOnUse" y2="434.749" x2="82.035" y1="437.76" x1="523.093" id="paint2_linear_142_2219">
<stop stop-color="white"></stop>
<stop stop-opacity="0.3" stop-color="white" offset="0.307755"></stop>
<stop stop-opacity="0" stop-color="white" offset="0.751945"></stop>
</linearGradient>
<clipPath id="clip0_142_2219">
<rect transform="translate(557 305)" fill="white" height="190.75" width="326"></rect>
</clipPath>
<clipPath id="clip1_142_2219">
<rect transform="translate(0 64)" fill="white" height="711" width="322"></rect>
</clipPath>
<clipPath id="clip2_142_2219">
<rect transform="translate(-10 406)" fill="white" height="369" width="332"></rect>
</clipPath>
</defs>
</svg>
